<?xml version="1.0" encoding="utf-8"?>
<!-- Generator: Adobe Illustrator 27.5.0, SVG Export Plug-In . SVG Version: 6.00 Build 0)  -->
<svg version="1.1" id="Layer_2" xmlns="http://www.w3.org/2000/svg" xmlns:xlink="http://www.w3.org/1999/xlink" x="0px" y="0px"
	 viewBox="0 0 800 800" style="enable-background:new 0 0 800 800;" xml:space="preserve">
<style type="text/css">
	.st0{fill:#E0E0E0;}
	.st1{fill:#B2B2B2;}
</style>
<g>
	<g>
		<g>
			<path class="st0" d="M363.9,792.5c-19.9,0-35.5-15.8-35.5-36v-51.2l-5.7-1.4c-29.3-7.2-56.4-18.2-82.9-33.6l-5-2.9l-36,35.6
				c-6.9,6.8-15.9,10.6-25.6,10.6c-9.6,0-18.7-3.8-25.5-10.6l-50.8-50.8c-6.8-6.8-10.6-15.9-10.6-25.6c0-9.7,3.8-18.8,10.6-25.6
				l34.6-34.9l-3.1-5c-15.8-26.1-27.7-54.3-35.3-84l-1.4-5.6H43.5c-20.2,0-36-15.6-36-35.5v-71.8c0-19.8,16.2-35.9,36-35.9h48.2
				l1.4-5.6c7.5-29.5,19.4-57.6,35.4-83.8l3.1-5L97,199.2c-6.8-6.8-10.6-15.9-10.6-25.5c0-9.5,3.9-18.8,10.6-25.5l50.8-50.8
				c6.5-6.5,15.8-10.2,25.6-10.2c9.8,0,19.1,3.7,25.6,10.2l35.9,35.7l5-2.9c26.6-15.5,53.7-26.5,82.9-33.6l5.7-1.4V43.9
				c0-20,15.9-36.4,35.5-36.4h71.8c19.7,0,35.8,16.3,35.8,36.4v51.3l5.7,1.4c29.1,7.1,56.1,18.1,82.7,33.6l5,2.9l35.9-35.6
				c6.5-6.5,15.7-10.2,25.5-10.2c9.8,0,19.1,3.7,25.6,10.2l50.8,50.8c6.8,6.8,10.6,15.9,10.6,25.5c0,9.7-3.8,18.8-10.6,25.6
				L668.1,234l3.1,5c15.9,26.1,27.8,54.3,35.4,83.8l1.4,5.6h48.2c9.7,0,18.8,3.7,25.7,10.5c6.9,6.8,10.7,15.8,10.6,25.3v71.8
				c0,19.6-16.3,35.5-36.4,35.5h-48.2l-1.4,5.6c-7.6,29.7-19.5,57.9-35.3,84l-3,5l34.6,35c6.8,6.9,10.6,16,10.6,25.6
				c0,9.7-3.8,18.8-10.6,25.5L651.9,703c-6.8,6.8-15.9,10.6-25.6,10.6c-9.7,0-18.8-3.8-25.6-10.6L565,667.4l-5,2.9
				c-26.6,15.5-53.7,26.5-82.7,33.6l-5.7,1.4v51.2c0,19.8-16.1,36-35.8,36H363.9z M399.8,256.1c-80.2,0-145.5,64.6-145.5,144.1
				c0,79.5,65.3,144.1,145.5,144.1c80.2,0,145.5-64.7,145.5-144.1C545.3,320.8,480.1,256.1,399.8,256.1z"/>
			<path class="st1" d="M435.8,15c15.6,0,28.3,12.9,28.3,28.9v45.4V101l11.4,2.8c28.4,6.9,54.8,17.7,80.7,32.8l10,5.8l8.2-8.1
				l31.8-31.6l0,0l0,0c5-5,12.4-7.9,20.2-7.9c7.8,0,15.2,2.9,20.3,8l50.8,50.7c5.4,5.4,8.4,12.6,8.4,20.3c0,7.7-3,14.9-8.4,20.3
				l-30.5,30.6l-8.3,8.3l6.1,10.1c15.5,25.5,27.1,53,34.5,81.8l2.9,11.3h11.6h42.4c7.7,0,14.9,3,20.4,8.4c5.4,5.4,8.4,12.5,8.4,20
				v71.8c0,7.5-3,14.5-8.4,19.8c-5.4,5.3-12.7,8.2-20.5,8.2h-42.4h-11.6l-2.9,11.3c-7.4,29-19,56.5-34.5,82l-6.1,10l8.2,8.3
				l30.5,30.8l0,0l0,0c5.4,5.4,8.4,12.6,8.4,20.2c0,7.7-3,14.9-8.4,20.3l-50.8,50.8c-5.4,5.4-12.6,8.4-20.3,8.4
				c-7.7,0-14.9-3-20.3-8.4l-31.6-31.5l-8.2-8.2l-10,5.8c-26,15.1-52.4,25.9-80.7,32.8l-11.4,2.8v11.8v45.3c0,7.7-2.9,14.8-8.3,20.2
				c-5.3,5.3-12.4,8.3-20,8.3h-71.8c-15.7,0-28-12.5-28-28.5v-45.3v-11.8l-11.4-2.8c-28.6-7-55-17.7-80.9-32.8l-9.9-5.8l-8.2,8.1
				l-31.9,31.6c-5.4,5.4-12.6,8.4-20.3,8.4c-7.6,0-14.8-3-20.2-8.4L102.3,647c-5.4-5.4-8.4-12.6-8.4-20.3c0-7.7,3-14.9,8.4-20.3l0,0
				l0,0l30.5-30.7l8.3-8.3l-6.1-10c-15.5-25.4-27.1-53-34.5-81.9l-2.9-11.3H86H43.5c-16,0-28.5-12.3-28.5-28v-71.8
				c0-15.6,12.8-28.4,28.5-28.4H86h11.6l2.9-11.3c7.4-28.7,19-56.2,34.5-81.8l6.1-10l-8.3-8.3l-30.5-30.7
				c-5.4-5.4-8.4-12.6-8.4-20.2c0-7.5,3.1-14.9,8.4-20.2l50.8-50.7c5.1-5.1,12.5-8,20.3-8c7.8,0,15.2,2.9,20.3,8l0,0l0,0l31.8,31.6
				l8.2,8.1l10-5.8c25.9-15.1,52.4-25.8,80.9-32.8l11.4-2.8V89.2V43.9c0-7.8,2.9-15,8.2-20.5c5.2-5.4,12.3-8.4,19.8-8.4H435.8
				 M399.8,551.8c84.4,0,153-68,153-151.6c0-83.6-68.6-151.6-153-151.6c-84.3,0-153,68-153,151.6
				C246.9,483.8,315.5,551.8,399.8,551.8 M435.8,0h-71.8c-24.1,0-43,19.8-43,43.9v45.4c-30.7,7.5-58.8,19.2-84.9,34.4L204.3,92
				c-8.2-8.2-19.6-12.4-30.9-12.4c-11.3,0-22.7,4.1-30.9,12.4l-50.8,50.8c-8.1,8.1-12.8,19.4-12.8,30.9c0,11.6,4.5,22.6,12.8,30.8
				l30.5,30.6c-16,26.3-28.3,55.1-36.2,85.8H43.5C19.4,320.9,0,340.3,0,364.3v71.8c0,24.1,19.4,43,43.5,43H86
				c7.9,30.7,20.2,59.7,36.2,86l-30.5,30.7c-8.2,8.2-12.8,19.2-12.8,30.9s4.5,22.7,12.8,30.9l50.8,50.8c8.2,8.2,19.2,12.8,30.8,12.8
				c11.6,0,22.6-4.5,30.9-12.8l31.9-31.6c26.1,15.2,54.2,26.9,84.9,34.4v45.3c0,24.1,18.9,43.5,43,43.5h71.8
				c24.1,0,43.3-19.4,43.3-43.5v-45.3c30.7-7.5,58.7-19.2,84.7-34.4l31.6,31.5c8.2,8.3,19.2,12.8,30.9,12.8
				c11.7,0,22.6-4.5,30.9-12.8l50.8-50.8c8.2-8.2,12.7-19.2,12.8-30.8c0-11.7-4.6-22.6-12.8-30.9l-30.5-30.8
				c16-26.3,28.3-55.3,36.2-86h42.4c24.1,0,43.9-18.9,43.9-43v-71.8c0-24-19.8-43.4-43.8-43.4h-42.4c-7.9-30.7-20.2-59.5-36.2-85.8
				l30.5-30.6c8.2-8.2,12.8-19.2,12.8-30.9c0-11.6-4.6-22.6-12.8-30.9l-50.8-50.8c-8.2-8.2-19.6-12.4-30.9-12.4
				c-11.3,0-22.6,4.1-30.8,12.4l-31.8,31.6c-26-15.2-53.9-26.9-84.7-34.4V43.9C479.1,19.8,459.8,0,435.8,0L435.8,0z M399.8,536.8
				c-76.2,0-138-61.2-138-136.6c0-75.5,61.8-136.6,138-136.6c76.2,0,138,61.1,138,136.6C537.8,475.7,476,536.8,399.8,536.8
				L399.8,536.8z"/>
		</g>
	</g>
</g>
</svg>
